<svg width="70" height="12" viewBox="0 0 70 12" fill="none" xmlns="http://www.w3.org/2000/svg">
<path d="M4.15625 11.1504C5.98828 11.1436 7.21875 10.2549 7.50586 8.88086H5.57812C5.37988 9.3252 4.8877 9.62598 4.19727 9.63281C3.15137 9.62598 2.48828 8.93555 2.48828 7.81445H7.56055V7.24023C7.56055 4.71094 6.02246 3.48047 4.07422 3.48047C1.90039 3.48047 0.485352 5.03223 0.492188 7.32227C0.485352 9.67383 1.87988 11.1436 4.15625 11.1504ZM2.48828 6.54297C2.5293 5.68848 3.18555 4.99121 4.11523 4.99805C5.01758 4.99121 5.63965 5.64062 5.64648 6.54297H2.48828ZM8.83203 11H10.8555V6.54297C10.8486 5.70215 11.3818 5.14844 12.0723 5.14844C12.7627 5.14844 13.2275 5.62012 13.2207 6.35156V11H15.1895V6.46094C15.1826 5.6748 15.6338 5.14844 16.3926 5.14844C17.0557 5.14844 17.5615 5.55859 17.5547 6.40625V11H19.5781V6.00977C19.5781 4.38965 18.6143 3.48047 17.2402 3.48047C16.1533 3.48047 15.3057 4.03418 14.998 4.875H14.9297C14.6836 4.02051 13.9248 3.48047 12.9062 3.48047C11.9082 3.48047 11.1562 4.00684 10.8418 4.875H10.7598V3.57617H8.83203V11ZM33.8047 3.57617H32.4102V1.79883H30.3867V3.57617H29.3613V5.09375H30.3867V9.00391C30.373 10.4463 31.3711 11.1025 32.834 11.0957C33.333 11.1025 33.6953 11.0615 33.9141 11.0273V9.42773C33.668 9.44824 33.3125 9.46875 33.1074 9.46875C32.6973 9.45508 32.4033 9.31152 32.4102 8.7168V5.09375H33.8047V3.57617ZM35.0762 11H37.0996V3.57617H35.0762V11ZM34.9805 1.58008C34.9805 2.14062 35.4795 2.60547 36.0879 2.60547C36.6895 2.60547 37.1885 2.14062 37.1816 1.58008C37.1885 1.00586 36.6895 0.547852 36.0879 0.541016C35.4795 0.547852 34.9805 1.00586 34.9805 1.58008ZM49.4531 6.70703C49.4531 5.72949 50.0342 5.16211 50.875 5.16211C51.7158 5.16211 52.208 5.70898 52.2148 6.625V11H54.2246V6.26953C54.2314 4.54004 53.2197 3.48047 51.668 3.48047C50.5674 3.48047 49.7744 4.02051 49.4395 4.875H49.3574V3.57617H47.4297V11H49.4531V6.70703ZM55.4414 8.92188C55.4482 10.3916 56.4941 11.1436 57.916 11.1367C59.0166 11.1436 59.7275 10.6582 60.0898 9.97461H60.1445V11H62.0586V5.99609C62.0654 4.20508 60.5342 3.48047 58.9141 3.48047C56.9453 3.48047 55.8242 4.49219 55.7012 5.77734H57.6289C57.7383 5.27148 58.1689 4.96387 58.8594 4.95703C59.6182 4.96387 60.042 5.31934 60.0488 5.94141V6.54297C59.7344 6.55664 58.7363 6.60449 58.2031 6.63867C56.7744 6.72754 55.4482 7.26758 55.4414 8.92188ZM57.3828 8.86719C57.3828 8.29297 57.8271 7.95801 58.5312 7.89648C58.873 7.86914 59.7412 7.82129 60.0488 7.80762V8.34766C60.0557 9.13379 59.4131 9.73535 58.4902 9.74219C57.8408 9.73535 57.3828 9.43457 57.3828 8.86719ZM65.627 1.10156H63.6035V11H65.627V1.10156ZM69.2227 1.10156H67.1992V11H69.2227V1.10156Z" fill="black"/>
</svg>
