<svg width="70" height="17" viewBox="0 0 70 17" fill="none" xmlns="http://www.w3.org/2000/svg">
<mask id="mask0_13_655" style="mask-type:alpha" maskUnits="userSpaceOnUse" x="0" y="0" width="70" height="17">
<path d="M4.15625 13.1504C5.98828 13.1436 7.21875 12.2549 7.50586 10.8809H5.57812C5.37988 11.3252 4.8877 11.626 4.19727 11.6328C3.15137 11.626 2.48828 10.9355 2.48828 9.81445H7.56055V9.24023C7.56055 6.71094 6.02246 5.48047 4.07422 5.48047C1.90039 5.48047 0.485352 7.03223 0.492188 9.32227C0.485352 11.6738 1.87988 13.1436 4.15625 13.1504ZM2.48828 8.54297C2.5293 7.68848 3.18555 6.99121 4.11523 6.99805C5.01758 6.99121 5.63965 7.64062 5.64648 8.54297H2.48828ZM8.83203 13H10.8555V8.54297C10.8486 7.70215 11.3818 7.14844 12.0723 7.14844C12.7627 7.14844 13.2275 7.62012 13.2207 8.35156V13H15.1895V8.46094C15.1826 7.6748 15.6338 7.14844 16.3926 7.14844C17.0557 7.14844 17.5615 7.55859 17.5547 8.40625V13H19.5781V8.00977C19.5781 6.38965 18.6143 5.48047 17.2402 5.48047C16.1533 5.48047 15.3057 6.03418 14.998 6.875H14.9297C14.6836 6.02051 13.9248 5.48047 12.9062 5.48047C11.9082 5.48047 11.1562 6.00684 10.8418 6.875H10.7598V5.57617H8.83203V13ZM33.8047 5.57617H32.4102V3.79883H30.3867V5.57617H29.3613V7.09375H30.3867V11.0039C30.373 12.4463 31.3711 13.1025 32.834 13.0957C33.333 13.1025 33.6953 13.0615 33.9141 13.0273V11.4277C33.668 11.4482 33.3125 11.4688 33.1074 11.4688C32.6973 11.4551 32.4033 11.3115 32.4102 10.7168V7.09375H33.8047V5.57617ZM35.0762 13H37.0996V5.57617H35.0762V13ZM34.9805 3.58008C34.9805 4.14062 35.4795 4.60547 36.0879 4.60547C36.6895 4.60547 37.1885 4.14062 37.1816 3.58008C37.1885 3.00586 36.6895 2.54785 36.0879 2.54102C35.4795 2.54785 34.9805 3.00586 34.9805 3.58008ZM49.4531 8.70703C49.4531 7.72949 50.0342 7.16211 50.875 7.16211C51.7158 7.16211 52.208 7.70898 52.2148 8.625V13H54.2246V8.26953C54.2314 6.54004 53.2197 5.48047 51.668 5.48047C50.5674 5.48047 49.7744 6.02051 49.4395 6.875H49.3574V5.57617H47.4297V13H49.4531V8.70703ZM55.4414 10.9219C55.4482 12.3916 56.4941 13.1436 57.916 13.1367C59.0166 13.1436 59.7275 12.6582 60.0898 11.9746H60.1445V13H62.0586V7.99609C62.0654 6.20508 60.5342 5.48047 58.9141 5.48047C56.9453 5.48047 55.8242 6.49219 55.7012 7.77734H57.6289C57.7383 7.27148 58.1689 6.96387 58.8594 6.95703C59.6182 6.96387 60.042 7.31934 60.0488 7.94141V8.54297C59.7344 8.55664 58.7363 8.60449 58.2031 8.63867C56.7744 8.72754 55.4482 9.26758 55.4414 10.9219ZM57.3828 10.8672C57.3828 10.293 57.8271 9.95801 58.5312 9.89648C58.873 9.86914 59.7412 9.82129 60.0488 9.80762V10.3477C60.0557 11.1338 59.4131 11.7354 58.4902 11.7422C57.8408 11.7354 57.3828 11.4346 57.3828 10.8672ZM65.627 3.10156H63.6035V13H65.627V3.10156ZM69.2227 3.10156H67.1992V13H69.2227V3.10156Z" fill="black"/>
<path d="M27.4842 6.41579C27.1192 6.0472 26.685 5.75436 26.2065 5.55409C25.728 5.35382 25.2147 5.25007 24.696 5.24879C24.1773 5.24751 23.6634 5.34874 23.1839 5.54665C22.7045 5.74456 22.2688 6.03526 21.902 6.40205C21.5353 6.76883 21.2446 7.20447 21.0467 7.68394C20.8487 8.16341 20.7475 8.67726 20.7488 9.19597C20.7501 9.71468 20.8538 10.228 21.0541 10.7065C21.2544 11.185 21.5472 11.6192 21.9158 11.9842C22.2808 12.3528 22.715 12.6456 23.1935 12.8459C23.6719 13.0461 24.1853 13.1499 24.704 13.1512C25.2227 13.1525 25.7366 13.0512 26.216 12.8533C26.6955 12.6554 27.1311 12.3647 27.4979 11.9979C27.8647 11.6311 28.1554 11.1955 28.3533 10.716C28.5512 10.2366 28.6525 9.72271 28.6512 9.204C28.6499 8.68529 28.5461 8.17194 28.3459 7.69345C28.1456 7.21496 27.8528 6.78076 27.4842 6.41579ZM23.4344 8.35623C23.5178 8.35623 23.5994 8.38098 23.6687 8.42733C23.7381 8.47369 23.7922 8.53958 23.8241 8.61666C23.8561 8.69375 23.8644 8.77858 23.8481 8.86041C23.8319 8.94225 23.7917 9.01742 23.7327 9.07642C23.6737 9.13542 23.5985 9.1756 23.5167 9.19188C23.4348 9.20816 23.35 9.1998 23.2729 9.16787C23.1958 9.13594 23.1299 9.08187 23.0836 9.01249C23.0372 8.94311 23.0125 8.86155 23.0125 8.77811C23.0123 8.72267 23.0232 8.66775 23.0443 8.6165C23.0655 8.56525 23.0965 8.51869 23.1357 8.47949C23.1749 8.44029 23.2215 8.40922 23.2728 8.38806C23.324 8.36691 23.3789 8.3561 23.4344 8.35623ZM26.3817 10.2225C26.1707 10.9309 25.4993 11.45 24.7009 11.45C23.9025 11.45 23.231 10.9309 23.0183 10.2225C23.0123 10.2014 23.0114 10.1792 23.0156 10.1577C23.0197 10.1362 23.0288 10.1159 23.0422 10.0986C23.0556 10.0812 23.0728 10.0672 23.0926 10.0577C23.1123 10.0481 23.134 10.0434 23.1559 10.0437H26.2442C26.2661 10.0434 26.2878 10.0482 26.3075 10.0577C26.3272 10.0673 26.3445 10.0813 26.3578 10.0986C26.3712 10.116 26.3803 10.1362 26.3844 10.1577C26.3886 10.1792 26.3876 10.2014 26.3817 10.2225ZM25.9656 9.19998C25.8822 9.19998 25.8006 9.17524 25.7312 9.12889C25.6619 9.08253 25.6078 9.01664 25.5758 8.93955C25.5439 8.86247 25.5356 8.77764 25.5518 8.69581C25.5681 8.61397 25.6083 8.5388 25.6673 8.4798C25.7263 8.4208 25.8015 8.38062 25.8833 8.36434C25.9651 8.34806 26.05 8.35642 26.1271 8.38835C26.2041 8.42028 26.27 8.47435 26.3164 8.54373C26.3627 8.61311 26.3875 8.69467 26.3875 8.77811C26.3876 8.83355 26.3768 8.88847 26.3557 8.93972C26.3345 8.99097 26.3034 9.03753 26.2642 9.07673C26.225 9.11593 26.1785 9.147 26.1272 9.16815C26.076 9.18931 26.0211 9.20012 25.9656 9.19998Z" fill="#2998FF"/>
<path d="M42.3768 5.32654C44.5583 5.32654 46.3268 7.09495 46.3268 9.27654C46.3268 11.4581 44.5583 13.2265 42.3768 13.2265C40.1952 13.2265 38.4268 11.4581 38.4268 9.27654C38.4268 7.09495 40.1952 5.32654 42.3768 5.32654ZM42.3768 9.86627C42.0612 9.86593 41.7488 9.92877 41.4579 10.0511C41.167 10.1734 40.9035 10.3527 40.683 10.5785C40.6551 10.6061 40.633 10.639 40.618 10.6753C40.6029 10.7115 40.5952 10.7504 40.5953 10.7897C40.5954 10.8289 40.6033 10.8678 40.6186 10.904C40.6338 10.9401 40.6561 10.9729 40.6842 11.0004C40.7122 11.0279 40.7454 11.0495 40.7819 11.0641C40.8184 11.0786 40.8574 11.0857 40.8966 11.0851C40.9359 11.0844 40.9746 11.0759 41.0105 11.0602C41.0465 11.0444 41.079 11.0216 41.106 10.9932C41.2714 10.8237 41.469 10.689 41.6872 10.5971C41.9055 10.5052 42.14 10.4581 42.3768 10.4584C42.8606 10.4584 43.3129 10.6519 43.6451 10.9904C43.6722 11.0189 43.7047 11.0416 43.7407 11.0574C43.7766 11.0731 43.8154 11.0816 43.8547 11.0822C43.8939 11.0829 43.9329 11.0757 43.9694 11.0611C44.0059 11.0466 44.0391 11.0249 44.0671 10.9974C44.0951 10.9698 44.1174 10.937 44.1326 10.9008C44.1478 10.8646 44.1557 10.8257 44.1558 10.7865C44.1558 10.7472 44.1481 10.7083 44.133 10.672C44.1179 10.6358 44.0957 10.6029 44.0678 10.5753C43.8473 10.3504 43.5842 10.1719 43.2938 10.0501C43.0034 9.92837 42.6916 9.86586 42.3768 9.86627ZM40.8833 7.16724L40.8469 7.14196C40.7855 7.10607 40.7133 7.09346 40.6433 7.10644C40.5734 7.11943 40.5105 7.15713 40.4661 7.21267C40.4216 7.26821 40.3987 7.33788 40.4014 7.40895C40.4041 7.48002 40.4323 7.54775 40.4808 7.59976L40.5128 7.62978L41.0093 8.02636C40.9259 8.05953 40.8531 8.11479 40.7988 8.18621C40.7445 8.25762 40.7106 8.34249 40.7009 8.4317C40.6912 8.52091 40.706 8.61107 40.7437 8.69251C40.7813 8.77395 40.8405 8.84357 40.9148 8.89391C40.9891 8.94424 41.0757 8.97338 41.1653 8.97819C41.2549 8.983 41.3441 8.9633 41.4234 8.92121C41.5026 8.87912 41.5689 8.81623 41.6151 8.7393C41.6613 8.66236 41.6856 8.5743 41.6855 8.48456C41.7432 8.48475 41.7997 8.46804 41.8481 8.4365C41.8964 8.40496 41.9345 8.35997 41.9576 8.30707C41.9807 8.25416 41.9878 8.19566 41.9781 8.13876C41.9683 8.08187 41.9421 8.02907 41.9028 7.98686L41.8704 7.95724L40.8833 7.16724ZM44.287 7.21345C44.2426 7.15797 44.1798 7.12027 44.11 7.10721C44.0402 7.09416 43.968 7.10663 43.9066 7.14235L43.8703 7.16724L42.8835 7.95724L42.8512 7.98686C42.8146 8.02642 42.7895 8.07521 42.7786 8.12797C42.7676 8.18073 42.7713 8.23547 42.7892 8.28629C42.8071 8.33712 42.8385 8.38211 42.88 8.41642C42.9216 8.45073 42.9717 8.47306 43.025 8.48101L43.0684 8.48417C43.0683 8.57183 43.0915 8.65794 43.1356 8.73366C43.1798 8.80938 43.2433 8.87198 43.3197 8.91503C43.396 8.95808 43.4825 8.98002 43.5701 8.9786C43.6578 8.97719 43.7435 8.95246 43.8184 8.90697C43.8933 8.86148 43.9548 8.79686 43.9965 8.71975C44.0382 8.64265 44.0586 8.55583 44.0556 8.46822C44.0527 8.38061 44.0264 8.29537 43.9796 8.22126C43.9328 8.14715 43.8671 8.08683 43.7893 8.04651L43.7446 8.02636L44.2408 7.62978L44.2728 7.59976C44.3209 7.54769 44.3488 7.48007 44.3514 7.40917C44.3539 7.33828 44.3309 7.26883 44.2866 7.21345H44.287Z" fill="#FF5252"/>
</mask>
<g mask="url(#mask0_13_655)">
<rect width="70" height="17" fill="url(#paint0_linear_13_655)"/>
</g>
<defs>
<linearGradient id="paint0_linear_13_655" x1="-1.42777e-08" y1="17.2576" x2="70" y2="17.2576" gradientUnits="userSpaceOnUse">
<stop stop-color="#2998FF"/>
<stop offset="1" stop-color="#FF5252"/>
</linearGradient>
</defs>
</svg>
